<svg id="Capa_1" enable-background="new 0 0 512.007 512.007" height="512" viewBox="0 0 512.007 512.007" width="512" xmlns="http://www.w3.org/2000/svg"><g><path d="m333.926 138.806v-41.586l34.802-19.15c3.179-1.75 5.153-5.092 5.153-8.722 0-3.629-1.975-6.971-5.155-8.723l-107.926-59.387c-3.002-1.65-6.589-1.651-9.597.001l-49.063 26.999c-3.629 1.997-4.951 6.559-2.955 10.188 1.998 3.629 6.557 4.951 10.188 2.955l46.632-25.661 97.459 53.63c-7.654 4.212-45.937 25.278-54.679 30.088l-37.631-35.541c-3.011-2.844-7.758-2.71-10.602.303-2.845 3.011-2.709 7.758.303 10.602l34.127 32.231-29.02 15.969c-2.917-1.521-8.586-4.676-17.081-9.401-28.528-15.87-51.653-28.609-80.306-44.268l23.992-13.202c3.63-1.997 4.952-6.558 2.956-10.187-1.997-3.63-6.56-4.953-10.187-2.956l-32.057 17.64c-3.179 1.75-5.153 5.092-5.153 8.721 0 3.63 1.975 6.972 5.179 8.735 13.145 7.174 24.661 13.482 34.776 19.038v41.694c-69.672 30.435-116.785 99.616-116.785 178.483 0 107.362 87.346 194.708 194.708 194.708 107.361 0 194.707-87.346 194.707-194.708 0-79.23-47.576-148.25-116.785-178.493zm-128.353 53.519c16.765 5.296 33.598 7.949 50.43 7.949 16.835 0 33.671-2.654 50.439-7.952 50.202 20.271 84.311 69.251 84.311 124.976 0 74.302-60.448 134.75-134.75 134.75-74.301 0-134.749-60.448-134.749-134.75 0-56.201 34.436-104.836 84.319-124.973zm26.015-65.616c10.436 5.806 15.674 8.72 18.537 10.151 1.629.814 3.778 1.89 6.236 1.89 1.431 0 2.965-.364 4.561-1.357l29.188-16.061v39.983c0 4.143 3.357 7.5 7.5 7.5s7.5-3.357 7.5-7.5v-48.237l13.816-7.603v63.876c0 1.409-.851 2.676-2.167 3.227-40.312 16.872-81.195 16.872-121.51.001-1.317-.552-2.168-1.818-2.168-3.228v-63.975c17.406 9.593 29.65 16.405 38.507 21.333zm24.416 370.298c-99.092 0-179.708-80.616-179.708-179.708 0-70.795 41.032-132.716 101.785-161.954v14.006c0 6.265 3.146 11.976 8.233 15.366-47.434 24.918-80.06 74.884-80.06 132.582 0 82.572 67.177 149.75 149.749 149.75s149.75-67.178 149.75-149.75c0-57.347-32.401-107.533-80.057-132.584 5.085-3.39 8.23-9.101 8.23-15.364v-14.014c60.706 29.232 101.785 91.248 101.785 161.962 0 99.091-80.616 179.708-179.707 179.708z"/><path d="m256.003 231.478c4.143 0 7.5-3.357 7.5-7.5v-6.313c0-4.143-3.357-7.5-7.5-7.5s-7.5 3.357-7.5 7.5v6.313c0 4.143 3.357 7.5 7.5 7.5z"/><path d="m349.323 324.799h6.314c4.143 0 7.5-3.357 7.5-7.5s-3.357-7.5-7.5-7.5h-6.314c-4.143 0-7.5 3.357-7.5 7.5s3.358 7.5 7.5 7.5z"/><path d="m256.003 403.119c-4.143 0-7.5 3.357-7.5 7.5v6.314c0 4.143 3.357 7.5 7.5 7.5s7.5-3.357 7.5-7.5v-6.314c0-4.143-3.358-7.5-7.5-7.5z"/><path d="m148.869 317.299c0 4.143 3.357 7.5 7.5 7.5h6.313c4.143 0 7.5-3.357 7.5-7.5s-3.357-7.5-7.5-7.5h-6.313c-4.143 0-7.5 3.357-7.5 7.5z"/><path d="m256.003 324.799h40.14c4.143 0 7.5-3.357 7.5-7.5s-3.357-7.5-7.5-7.5h-32.64v-53.793c0-4.143-3.357-7.5-7.5-7.5s-7.5 3.357-7.5 7.5v61.293c0 4.142 3.357 7.5 7.5 7.5z"/><path d="m231.457 388.084h49.093c8.833 0 16.019-7.187 16.019-16.02v-12.798c0-8.833-7.186-16.02-16.019-16.02h-49.093c-8.833 0-16.019 7.187-16.019 16.02v12.798c0 8.833 7.186 16.02 16.019 16.02zm-1.019-28.818c0-.562.457-1.02 1.019-1.02h49.093c.562 0 1.019.457 1.019 1.02v12.798c0 .562-.457 1.02-1.019 1.02h-49.093c-.562 0-1.019-.457-1.019-1.02z"/></g></svg>