<?xml version="1.0" standalone="no"?>
<!DOCTYPE svg PUBLIC "-//W3C//DTD SVG 20010904//EN"
 "http://www.w3.org/TR/2001/REC-SVG-20010904/DTD/svg10.dtd">
<svg version="1.0" xmlns="http://www.w3.org/2000/svg"
 width="1094.000000pt" height="1094.000000pt" viewBox="0 0 1094.000000 1094.000000"
 preserveAspectRatio="xMidYMid meet">
<metadata>
Created by potrace 1.11, written by Peter Selinger 2001-2013
</metadata>
<g transform="translate(0.000000,1094.000000) scale(0.100000,-0.100000)"
fill="#000000" stroke="none">
<path d="M5307 10454 c-1 -1 -54 -5 -117 -8 -63 -4 -131 -8 -150 -10 -19 -2
-67 -7 -105 -10 -39 -4 -80 -8 -90 -10 -28 -5 -103 -16 -150 -21 -22 -3 -60
-9 -85 -15 -25 -5 -85 -16 -135 -25 -158 -28 -423 -101 -639 -175 -216 -75
-417 -160 -621 -265 -194 -99 -247 -127 -255 -135 -3 -3 -34 -23 -70 -44 -70
-42 -322 -208 -343 -226 -6 -6 -55 -42 -107 -81 -52 -39 -97 -74 -100 -78 -3
-3 -27 -24 -55 -46 -27 -22 -55 -44 -61 -50 -7 -5 -42 -37 -79 -70 -147 -133
-373 -363 -470 -480 -22 -27 -44 -53 -50 -59 -14 -15 -97 -119 -117 -147 -9
-13 -24 -33 -33 -44 -62 -81 -208 -293 -245 -356 -8 -14 -33 -56 -55 -93 -92
-156 -189 -343 -263 -507 -47 -103 -167 -407 -173 -439 -2 -7 -4 -15 -42 -135
-35 -109 -118 -430 -115 -443 1 -4 -4 -33 -11 -65 -7 -32 -11 -60 -9 -63 2 -2
33 23 69 56 137 128 158 148 254 235 54 50 122 113 152 140 29 28 85 79 124
115 39 36 86 79 103 95 149 138 182 167 223 189 63 36 139 54 214 51 126 -5
193 -38 326 -161 49 -45 102 -94 118 -109 17 -15 74 -68 129 -118 54 -51 111
-103 126 -117 24 -22 179 -165 260 -240 15 -14 73 -68 130 -120 56 -52 105
-96 109 -98 5 -1 16 19 26 45 10 26 24 63 32 80 7 18 13 36 14 40 0 5 8 16 16
26 9 9 13 17 10 17 -17 0 128 229 196 310 50 59 176 187 214 217 20 15 41 33
47 39 27 25 148 104 218 142 63 34 254 119 273 122 3 0 10 3 17 5 16 6 125 35
153 40 38 8 70 15 100 20 17 3 41 7 55 10 41 9 180 18 260 18 277 0 485 -43
744 -155 149 -63 220 -78 286 -57 19 7 80 31 136 54 55 24 143 58 195 75 81
28 120 38 243 65 20 5 91 14 151 20 55 6 246 6 270 1 12 -2 48 -7 80 -11 134
-15 336 -74 477 -139 31 -14 62 -26 67 -26 6 0 11 -4 11 -10 0 -5 6 -10 13
-10 19 0 211 -127 287 -190 71 -58 151 -139 208 -210 21 -25 40 -47 43 -50 23
-21 127 -198 172 -291 58 -122 127 -318 125 -359 0 -14 9 -67 20 -117 11 -51
23 -121 27 -155 4 -35 10 -80 15 -101 16 -76 20 -74 -183 -75 -100 -1 -199 -3
-220 -6 -66 -7 -111 -50 -127 -119 -16 -73 15 -114 237 -313 37 -34 82 -75 99
-90 34 -32 132 -123 284 -264 57 -52 115 -106 130 -120 15 -14 52 -47 82 -75
107 -99 272 -251 313 -290 23 -22 78 -72 121 -111 44 -39 100 -91 125 -115
150 -143 213 -195 247 -205 20 -5 42 -10 47 -9 44 5 81 22 114 53 21 20 81 76
132 123 130 120 149 137 272 252 59 55 118 109 130 120 27 23 198 180 242 222
17 17 76 71 130 120 54 50 110 101 125 115 168 156 262 243 298 275 24 21 63
57 86 79 24 23 59 55 78 72 84 74 96 166 30 237 -38 40 -88 49 -269 50 -110 0
-163 4 -164 11 0 6 -2 31 -4 56 -8 126 -16 230 -19 251 -6 37 -18 129 -22 174
-2 22 -9 63 -14 90 -5 28 -12 66 -14 85 -3 20 -7 47 -10 60 -3 14 -8 36 -10
50 -2 14 -16 77 -31 140 -15 63 -28 124 -30 135 -4 22 -71 244 -103 340 -186
555 -464 1060 -852 1549 -8 11 -29 35 -46 55 -17 20 -39 47 -50 60 -80 99
-397 417 -525 526 -247 210 -510 395 -788 554 -136 79 -441 234 -441 225 0 -3
-19 5 -41 17 -96 49 -437 171 -619 223 -30 8 -89 25 -130 36 -41 12 -82 22
-90 22 -8 0 -38 6 -65 14 -75 20 -351 68 -455 78 -19 2 -53 6 -75 10 -22 3
-71 8 -110 11 -38 2 -104 8 -145 11 -69 6 -458 13 -463 8z m1449 -1436 c-8
-164 -12 -192 -42 -348 -29 -148 -122 -376 -212 -515 -165 -259 -387 -446
-657 -553 -104 -42 -196 -60 -347 -69 -74 -4 -89 -2 -94 11 -9 23 -10 201 -2
272 16 140 76 324 151 464 36 68 138 223 184 281 32 41 217 224 251 249 19 14
39 30 46 36 31 29 169 116 241 152 131 66 228 98 355 118 19 3 36 7 37 7 1 1
23 3 48 5 l47 2 -6 -112z"/>
<path d="M1624 6962 c-18 -9 -73 -55 -124 -102 -50 -47 -106 -98 -124 -115
-171 -156 -225 -207 -267 -247 -27 -27 -51 -48 -53 -48 -2 0 -28 -24 -58 -52
-30 -29 -97 -93 -150 -141 -53 -48 -112 -102 -131 -120 -18 -18 -76 -70 -127
-117 -51 -47 -107 -98 -125 -115 -17 -16 -75 -70 -129 -120 -54 -49 -110 -101
-125 -115 -15 -14 -61 -57 -102 -95 -42 -39 -81 -79 -86 -90 -35 -64 -13 -152
48 -196 32 -23 40 -24 221 -24 118 0 188 -4 189 -10 1 -12 5 -65 13 -193 3
-53 8 -108 10 -122 2 -14 8 -52 11 -85 12 -99 13 -103 20 -147 4 -24 9 -54 10
-68 1 -14 7 -50 14 -80 6 -30 13 -64 15 -75 27 -141 83 -363 123 -490 24 -79
104 -307 118 -340 7 -16 36 -86 65 -155 61 -146 165 -357 239 -484 28 -49 51
-90 51 -92 0 -24 321 -489 395 -571 5 -6 21 -26 35 -44 14 -18 30 -37 35 -44
6 -6 39 -44 75 -85 138 -159 372 -392 496 -495 20 -16 41 -35 48 -40 6 -6 34
-28 61 -50 28 -22 52 -43 55 -46 3 -3 37 -29 75 -58 39 -29 77 -58 85 -64 38
-31 182 -127 190 -127 5 0 10 -3 12 -7 4 -9 56 -44 148 -99 36 -22 72 -43 81
-49 143 -86 449 -236 634 -310 66 -26 134 -53 150 -60 88 -37 449 -144 590
-176 28 -6 59 -13 70 -15 44 -10 163 -33 205 -39 24 -4 47 -8 51 -10 3 -2 28
-7 55 -10 27 -3 65 -7 84 -10 252 -33 372 -40 670 -40 287 0 436 8 630 35 41
6 98 13 125 16 28 3 66 10 85 14 19 5 53 12 75 14 22 3 81 15 130 26 50 11
101 23 115 26 142 28 597 173 706 225 22 10 44 19 48 19 7 0 50 19 161 71 28
12 52 23 55 24 3 0 10 4 17 8 6 4 61 32 121 62 193 96 429 239 617 373 100 71
245 182 265 202 3 3 28 23 55 45 111 88 346 313 470 450 44 48 85 93 90 99 11
12 159 192 178 216 101 129 327 457 327 474 0 2 17 33 38 67 258 427 464 958
573 1479 17 79 33 149 37 155 11 17 -70 -50 -136 -114 -34 -34 -64 -61 -67
-61 -2 0 -26 -21 -52 -47 -27 -27 -96 -91 -153 -143 -57 -52 -115 -106 -130
-120 -14 -14 -70 -65 -124 -115 -54 -49 -110 -101 -125 -115 -121 -114 -177
-147 -275 -164 -147 -26 -273 20 -407 147 -64 60 -157 147 -309 287 -15 14
-73 68 -130 120 -57 52 -115 106 -130 120 -94 86 -232 213 -284 262 -59 55
-76 62 -76 32 0 -37 -87 -298 -158 -474 -88 -220 -231 -496 -358 -690 -201
-308 -441 -569 -613 -667 -25 -15 -53 -32 -61 -38 -24 -18 -160 -71 -220 -85
-62 -15 -229 -19 -307 -7 -47 6 -268 73 -318 96 -74 34 -268 95 -347 110 -57
10 -243 8 -293 -3 -49 -12 -231 -74 -278 -95 -63 -29 -191 -69 -291 -90 -126
-28 -331 -24 -435 8 -119 36 -265 114 -356 188 -70 58 -200 191 -268 274 -62
78 -239 334 -260 379 -4 8 -17 31 -28 50 -162 265 -335 660 -433 985 -61 201
-89 315 -101 415 -4 30 -8 57 -10 60 -2 3 -6 37 -10 75 -3 39 -8 79 -10 90 -4
20 1 20 208 19 242 -2 265 4 307 78 44 78 26 136 -68 222 -25 22 -57 52 -72
66 -15 14 -71 66 -125 115 -116 106 -121 111 -260 240 -59 55 -115 107 -125
115 -14 13 -173 159 -270 250 -15 14 -69 63 -120 110 -97 89 -113 104 -228
213 -40 37 -73 67 -75 67 -2 0 -40 35 -84 78 -45 42 -101 93 -123 112 -61 51
-122 62 -176 32z"/>
</g>
</svg>
